<?xml version="1.0" encoding="UTF-8"?>
<svg id="_图层_1" data-name="图层 1" xmlns="http://www.w3.org/2000/svg" viewBox="0 0 5710.62 1601.72">
  <defs>
    <style>
      .cls-1 {
        fill: #fff;
      }

      .cls-2 {
        fill: #333;
      }

      .cls-3 {
        fill: #006cc3;
      }
    </style>
  </defs>
  <g>
    <rect class="cls-1" y="0" width="5716.74" height="1599.32"/>
    <path class="cls-3" d="M1430.72,1012.64v-492.72c22.07-7.11,38.03-27.69,38.03-51.99,0-30.18-24.62-54.65-55-54.65-17.39,0-32.88,8.03-42.96,20.54l-355.57-144.15c.05-.95.08-1.91.08-2.88,0-30.18-24.62-54.65-55-54.65s-55,24.47-55,54.65c0,.44.02.88.03,1.32l-359.24,142.17c-10.02-10.47-24.16-17-39.84-17-30.38,0-55,24.47-55,54.65,0,24.75,16.57,45.65,39.28,52.37v491.95c-22.71,6.72-39.28,27.62-39.28,52.37,0,30.18,24.62,54.65,55,54.65,12.34,0,23.74-4.04,32.91-10.86l366.62,238.32c-.3,2.33-.47,4.69-.47,7.1,0,30.18,24.62,54.65,55,54.65s55-24.47,55-54.65c0-2.87-.23-5.68-.66-8.43l367.3-236.22c8.98,6.34,19.95,10.08,31.8,10.08,30.38,0,55-24.47,55-54.65,0-24.3-15.96-44.88-38.03-51.99ZM539.6,511.37l80.74,52.63v324.8c4.53,15.31,12.24,38.25,25.16,65.05l-104.47,68.44c-4.65-3.77-9.93-6.8-15.66-8.92v-494.2c5.15-1.9,9.95-4.54,14.24-7.8ZM559.35,1050.39l101.92-66.77c18.69,32.23,44.66,67.58,80.69,100.94,74.7,69.15,155.37,95.25,199.82,105.53v112.28c-7.83,2.78-14.84,7.28-20.57,13.04l-362.18-235.44c1.43-4.87,2.22-10.02,2.22-15.35,0-4.92-.67-9.69-1.9-14.23ZM778.63,688.19c-27.07,0-49.02-21.81-49.02-48.71h0c0-26.9,21.95-48.71,49.02-48.71h359.49c27.07,0,49.02,21.81,49.02,48.71h0c0,26.9-21.95,48.71-49.02,48.71h-130.21v312.05c0,24.38-19.89,44.14-44.43,44.14h-9.19c-24.54,0-44.43-19.76-44.43-44.14v-312.05h-131.23ZM975.49,1301.32v-112.28c43.44-12.7,115-47.13,183.98-104.48,44.04-36.61,74.72-73.67,96.01-106.57l106.16,69.2c-1.86,5.48-2.88,11.34-2.88,17.44s.91,11.36,2.59,16.6l-362.82,233.34c-6.39-6.13-14.26-10.75-23.04-13.25ZM1395.89,519.62v493.32c-5.11,1.75-9.88,4.21-14.18,7.28l-109.2-71.18c13.15-24.74,20.72-45.69,24.93-60.25v-321.91l83.8-54.89c4.42,3.23,9.36,5.81,14.65,7.62ZM1358.79,466.33c-.02.53-.04,1.06-.04,1.6,0,5.91.96,11.59,2.7,16.92l-85.76,56.18-300.21-117.82v-83.9c10.68-3.04,20.03-9.21,26.98-17.44l356.33,144.46ZM917.17,320.67c6.33,7.94,14.83,14.1,24.61,17.58v85.16l-296.91,116.52-86.01-56.06c1.55-5.05,2.39-10.4,2.39-15.95,0-2.12-.13-4.2-.37-6.25l356.29-141Z"/>
  </g>
  <g>
    <path class="cls-2" d="M2310.25,606.51h-179.82v-63.18h434.97v63.18h-179.82v530.55h-75.33v-530.55Z"/>
    <path class="cls-2" d="M2592.95,917.55c0-146.61,95.58-231.66,203.31-231.66s203.31,85.05,203.31,231.66-95.58,230.04-203.31,230.04-203.31-84.24-203.31-230.04ZM2924.24,917.55c0-101.25-51.84-169.29-127.98-169.29s-127.17,68.04-127.17,169.29,51.03,168.48,127.17,168.48,127.98-67.23,127.98-168.48Z"/>
    <path class="cls-2" d="M3100.81,1059.3l41.31-48.6c42.12,44.55,104.49,71.28,166.86,71.28,78.57,0,124.74-38.88,124.74-96.39,0-61.56-42.93-81-99.63-106.11l-85.05-36.45c-56.7-25.11-120.69-67.23-120.69-153.09,0-91.53,77.76-157.14,187.11-157.14,72.09,0,133.65,29.97,174.15,71.28l-39.69,48.6c-37.26-33.21-82.62-54.27-134.46-54.27-67.23,0-110.97,33.21-110.97,85.86,0,58.32,52.65,80.19,98.82,99.63l84.24,36.45c70.47,29.97,122.31,70.47,122.31,158.76,0,93.96-76.14,168.48-201.69,168.48-85.05,0-156.33-33.21-207.36-88.29Z"/>
    <path class="cls-2" d="M3630.55,998.55v-241.38h-65.61v-55.89l69.66-4.05,8.1-141.75h61.56v141.75h119.88v59.94h-119.88v243c0,54.27,17.01,85.05,68.04,85.05,16.2,0,33.21-2.43,50.22-11.34l15.39,52.65c-23.49,11.34-52.65,19.44-82.62,19.44-93.15,0-124.74-59.94-124.74-147.42Z"/>
    <path class="cls-2" d="M3898.66,917.55c0-146.61,95.58-231.66,203.31-231.66s203.31,85.05,203.31,231.66-95.58,230.04-203.31,230.04-203.31-84.24-203.31-230.04ZM4229.95,917.55c0-101.25-51.84-169.29-127.98-169.29s-127.17,68.04-127.17,169.29,51.03,168.48,127.17,168.48,127.98-67.23,127.98-168.48Z"/>
    <path class="cls-2" d="M4442.16,697.23h60.75l7.29,80.19h1.62c29.97-55.89,74.52-91.53,124.74-91.53,19.44,0,33.21,2.43,46.98,9.72l-16.2,62.37c-12.96-4.05-21.87-5.67-40.5-5.67-36.45,0-81,27.54-110.16,102.06v282.69h-74.52v-439.83Z"/>
    <path class="cls-2" d="M4735.38,917.55c0-143.37,96.39-231.66,196.83-231.66,112.59,0,175.77,81,175.77,206.55,0,16.2-1.62,30.78-3.24,42.12h-298.08c7.29,102.06,71.28,153.9,147.42,153.9,42.93,0,78.57-12.15,110.97-32.4l25.11,46.98c-38.07,25.92-85.05,44.55-144.18,44.55-117.45,0-210.6-85.05-210.6-230.04ZM5043.18,881.91c0-89.1-40.5-136.89-109.35-136.89-55.89,0-115.83,41.31-126.36,136.89h235.71Z"/>
  </g>
</svg>