<?xml version="1.0" encoding="UTF-8"?>
<svg id="_图层_1" data-name="图层_1" xmlns="http://www.w3.org/2000/svg" version="1.1" viewBox="0 0 5710.62 1920">
  <!-- Generator: Adobe Illustrator 30.0.0, SVG Export Plug-In . SVG Version: 2.1.1 Build 123)  -->
  <defs>
    <style>
      .st0 {
        fill: #fff;
      }

      .st1 {
        fill: #333;
      }

      .st2 {
        fill: #006cc3;
      }
    </style>
  </defs>
  <g>
    <rect class="st0" width="5716.74" height="1920"/>
    <path class="st2" d="M1430.72,1153.55v-495.87c22.07-7.15,38.03-27.87,38.03-52.32,0-30.38-24.62-55-55-55-17.39,0-32.88,8.08-42.96,20.67l-355.57-145.08c.05-.96.08-1.92.08-2.9,0-30.38-24.62-55-55-55s-55,24.62-55,55c0,.44.02.89.03,1.33l-359.24,143.08c-10.02-10.53-24.16-17.11-39.84-17.11-30.38,0-55,24.62-55,55,0,24.91,16.57,45.94,39.28,52.71v495.09c-22.71,6.76-39.28,27.8-39.28,52.71,0,30.38,24.62,55,55,55,12.34,0,23.74-4.07,32.91-10.93l366.62,239.85c-.3,2.34-.47,4.72-.47,7.15,0,30.38,24.62,55,55,55s55-24.62,55-55c0-2.89-.23-5.72-.66-8.48l367.3-237.72c8.98,6.38,19.95,10.14,31.8,10.14,30.38,0,55-24.62,55-55,0-24.45-15.96-45.17-38.03-52.32ZM539.6,649.09l80.74,52.96v326.87c4.53,15.4,12.24,38.49,25.16,65.47l-104.47,68.87c-4.65-3.8-9.93-6.85-15.66-8.97v-497.36c5.15-1.91,9.95-4.57,14.24-7.85ZM559.35,1191.55l101.92-67.19c18.69,32.44,44.66,68.01,80.69,101.58,74.7,69.6,155.37,95.86,199.82,106.21v113c-7.83,2.8-14.84,7.33-20.57,13.12l-362.18-236.95c1.43-4.9,2.22-10.08,2.22-15.45,0-4.96-.67-9.76-1.9-14.32ZM778.63,827.03c-27.07,0-49.02-21.95-49.02-49.02h0c0-27.07,21.95-49.02,49.02-49.02h359.49c27.07,0,49.02,21.95,49.02,49.02h0c0,27.07-21.95,49.02-49.02,49.02h-130.21v314.04c0,24.54-19.89,44.43-44.43,44.43h-9.19c-24.54,0-44.43-19.89-44.43-44.43v-314.04h-131.23ZM975.49,1444.07v-113c43.44-12.79,115-47.43,183.98-105.14,44.04-36.85,74.72-74.14,96.01-107.25l106.16,69.64c-1.86,5.51-2.88,11.41-2.88,17.55s.91,11.44,2.59,16.71l-362.82,234.83c-6.39-6.17-14.26-10.81-23.04-13.33ZM1395.89,657.38v496.47c-5.11,1.76-9.88,4.24-14.18,7.33l-109.2-71.63c13.15-24.9,20.72-45.98,24.93-60.63v-323.96l83.8-55.24c4.42,3.25,9.36,5.85,14.65,7.67ZM1358.79,603.76c-.02.53-.04,1.07-.04,1.61,0,5.95.96,11.67,2.7,17.03l-85.76,56.54-300.21-118.57v-84.44c10.68-3.06,20.03-9.27,26.98-17.55l356.33,145.39ZM917.17,457.17c6.33,7.99,14.83,14.19,24.61,17.69v85.71l-296.91,117.27-86.01-56.42c1.55-5.08,2.39-10.47,2.39-16.05,0-2.13-.13-4.23-.37-6.29l356.29-141.9Z"/>
  </g>
  <g>
    <path class="st1" d="M2323.09,731.29h-188.7v-66.3h456.45v66.3h-188.7v556.75h-79.05v-556.75Z"/>
    <path class="st1" d="M2619.75,1057.69c0-153.85,100.3-243.1,213.35-243.1s213.35,89.25,213.35,243.1-100.3,241.4-213.35,241.4-213.35-88.4-213.35-241.4ZM2967.4,1057.69c0-106.25-54.4-177.65-134.3-177.65s-133.45,71.4-133.45,177.65,53.55,176.8,133.45,176.8,134.3-70.55,134.3-176.8Z"/>
    <path class="st1" d="M3139.08,1233.64l35.7-45.9c39.1,33.15,80.75,51,138.55,51,61.2,0,90.95-32.3,90.95-72.25,0-46.75-51.85-68-103.7-86.7-68.85-25.5-136-57.8-136-134.3s57.8-130.9,158.95-130.9c56.95,0,107.95,22.1,142.8,52.7l-35.7,45.05c-32.3-23.8-65.45-37.4-106.25-37.4-58.65,0-85.85,32.3-85.85,67.15,0,42.5,41.65,58.65,97.75,79.05,73.1,26.35,141.95,56.95,141.95,141.1,0,74.8-58.65,136.85-167.45,136.85-68,0-130.05-23.8-171.7-65.45Z"/>
    <path class="st1" d="M3604.04,1142.69v-253.3h-68.85v-58.65l73.1-4.25,8.5-148.75h64.6v148.75h125.8v62.9h-125.8v255c0,56.95,17.85,89.25,71.4,89.25,17,0,34.85-2.55,52.7-11.9l16.15,55.25c-24.65,11.9-55.25,20.4-86.7,20.4-97.75,0-130.9-62.9-130.9-154.7Z"/>
    <path class="st1" d="M3885.38,1057.69c0-153.85,100.3-243.1,213.35-243.1s213.35,89.25,213.35,243.1-100.3,241.4-213.35,241.4-213.35-88.4-213.35-241.4ZM4233.04,1057.69c0-106.25-54.4-177.65-134.3-177.65s-133.45,71.4-133.45,177.65,53.55,176.8,133.45,176.8,134.3-70.55,134.3-176.8Z"/>
    <path class="st1" d="M4455.72,826.49h63.75l7.65,84.15h1.7c31.45-58.65,78.2-96.05,130.9-96.05,20.4,0,34.85,2.55,49.3,10.2l-17,65.45c-13.6-4.25-22.95-5.95-42.5-5.95-38.25,0-85,28.9-115.6,107.1v296.65h-78.2v-461.55Z"/>
    <path class="st1" d="M4763.42,1057.69c0-150.45,101.15-243.1,206.55-243.1,118.15,0,184.45,85,184.45,216.75,0,17-1.7,32.3-3.4,44.2h-312.8c7.65,107.1,74.8,161.5,154.7,161.5,45.05,0,82.45-12.75,116.45-34l26.35,49.3c-39.95,27.2-89.25,46.75-151.3,46.75-123.25,0-221-89.25-221-241.4ZM5086.43,1020.29c0-93.5-42.5-143.65-114.75-143.65-58.65,0-121.55,43.35-132.6,143.65h247.35Z"/>
  </g>
</svg>